<svg xmlns="http://www.w3.org/2000/svg" viewBox="0 0 24 24">
  <path fill="#0277bd" d="M12.31,0c-.98,0-1.66.09-2.49.23-2.43.42-2.87,1.31-2.87,2.95v2.5h5.68v1.26H3.98c-1.66,0-3.12.78-3.58,2.66C-.12,11.77-.14,13.12.4,15.37c.41,1.68,1.33,2.94,2.99,2.94h2.29v-3.22c0-1.87,1.7-3.72,3.64-3.72h4.57c1.59,0,3.16-1.18,3.16-2.76V3.18c0-1.54-1.11-2.69-2.66-2.95.04,0-1.11-.23-2.08-.23ZM9.16,2.53c.52,0,.95.43.95.95s-.43.95-.95.95-.95-.42-.95-.95.42-.95.95-.95Z"/>
  <path fill="#ffc107" d="M11.69,24c.98,0,1.66-.09,2.49-.23,2.43-.42,2.87-1.31,2.87-2.95v-2.5h-5.68v-1.26h8.65c1.66,0,3.12-.78,3.58-2.66.52-2.16.55-3.51,0-5.76-.41-1.68-1.33-2.94-2.99-2.94h-2.29v3.22c0,1.87-1.7,3.72-3.64,3.72h-4.57c-1.59,0-3.16,1.18-3.16,2.76v5.42c0,1.54,1.11,2.69,2.66,2.95-.04,0,1.11.23,2.08.23ZM14.84,21.47c-.52,0-.95-.43-.95-.95s.43-.95.95-.95.95.42.95.95-.42.95-.95.95Z"/>
</svg>
